<?xml version="1.0" encoding="UTF-8"?>
<svg id="Layer_2" data-name="Layer 2" xmlns="http://www.w3.org/2000/svg" viewBox="0 0 563.8 63.57">
  <defs>
    <style>
      .cls-1 {
        fill: #fff;
      }
    </style>
  </defs>
  <g id="_图层_1" data-name="图层 1">
    <g>
      <g>
        <path class="cls-1" d="M3.85,47.9c-1.17-.7-2.1-1.63-2.8-2.8-.7-1.17-1.05-2.45-1.05-3.85v-21.49c0-1.4.35-2.68,1.05-3.85.7-1.17,1.63-2.1,2.8-2.8,1.17-.7,2.45-1.05,3.85-1.05h22.12c1.44,0,2.74.35,3.91,1.05,1.17.7,2.1,1.63,2.8,2.8.7,1.17,1.05,2.45,1.05,3.85v21.49c0,1.4-.35,2.68-1.05,3.85-.7,1.17-1.63,2.1-2.8,2.8-1.17.7-2.47,1.05-3.91,1.05H7.69c-1.4,0-2.68-.35-3.85-1.05ZM7.69,43.74h22.12c.68,0,1.26-.24,1.75-.73.49-.49.73-1.07.73-1.75v-21.49c0-.68-.24-1.26-.73-1.75s-1.07-.73-1.75-.73H7.69c-.68,0-1.26.24-1.75.73s-.73,1.07-.73,1.75v21.49c0,.68.24,1.26.73,1.75.49.49,1.07.73,1.75.73Z"/>
        <path class="cls-1" d="M44.18,63.57V12.08h29.88c1.4,0,2.68.35,3.85,1.05,1.17.7,2.1,1.63,2.8,2.8.7,1.17,1.05,2.45,1.05,3.85v21.49c0,1.4-.35,2.68-1.05,3.85-.7,1.17-1.63,2.1-2.8,2.8-1.17.7-2.45,1.05-3.85,1.05h-24.67v14.62h-5.21ZM51.94,43.74h22.12c.68,0,1.26-.24,1.75-.73s.73-1.07.73-1.75v-21.49c0-.68-.24-1.26-.73-1.75-.49-.49-1.07-.73-1.75-.73h-22.12c-.68,0-1.27.24-1.78.73-.51.49-.76,1.07-.76,1.75v21.49c0,.68.25,1.26.76,1.75.51.49,1.1.73,1.78.73Z"/>
        <path class="cls-1" d="M90.05,47.9c-1.17-.7-2.1-1.63-2.8-2.8-.7-1.17-1.05-2.45-1.05-3.85v-21.49c0-1.4.35-2.68,1.05-3.85.7-1.17,1.63-2.1,2.8-2.8,1.17-.7,2.45-1.05,3.85-1.05h22.12c1.44,0,2.74.35,3.91,1.05,1.17.7,2.1,1.63,2.8,2.8.7,1.17,1.05,2.45,1.05,3.85v13.35h-32.36v8.14c0,.68.24,1.26.73,1.75.49.49,1.07.73,1.75.73h29.88v5.21h-29.88c-1.4,0-2.68-.35-3.85-1.05ZM91.41,27.91h27.08v-8.14c0-.68-.24-1.26-.73-1.75s-1.07-.73-1.75-.73h-22.12c-.68,0-1.26.24-1.75.73s-.73,1.07-.73,1.75v8.14Z"/>
        <path class="cls-1" d="M130.38,48.95V12.08h29.88c1.4,0,2.68.35,3.85,1.05,1.17.7,2.1,1.63,2.8,2.8.7,1.17,1.05,2.45,1.05,3.85v29.18h-5.21v-29.18c0-.68-.24-1.26-.73-1.75-.49-.49-1.07-.73-1.75-.73h-22.12c-.68,0-1.27.24-1.78.73-.51.49-.76,1.07-.76,1.75v29.18h-5.21Z"/>
        <path class="cls-1" d="M178.34,47.9c-1.17-.7-2.09-1.63-2.76-2.8-.68-1.17-1.02-2.45-1.02-3.85V0h5.21v12.08h15.96v5.21h-15.96v23.97c0,.68.24,1.26.73,1.75.49.49,1.07.73,1.75.73h13.48v5.21h-13.48c-1.44,0-2.75-.35-3.91-1.05Z"/>
        <path class="cls-1" d="M204.34,47.9c-1.17-.7-2.1-1.63-2.8-2.8-.7-1.17-1.05-2.45-1.05-3.85v-21.49c0-1.4.35-2.68,1.05-3.85.7-1.17,1.63-2.1,2.8-2.8,1.17-.7,2.45-1.05,3.85-1.05h22.12c1.44,0,2.74.35,3.91,1.05,1.17.7,2.1,1.63,2.8,2.8.7,1.17,1.05,2.45,1.05,3.85v13.35h-32.36v8.14c0,.68.24,1.26.73,1.75.49.49,1.07.73,1.75.73h29.88v5.21h-29.88c-1.4,0-2.68-.35-3.85-1.05ZM205.71,27.91h27.08v-8.14c0-.68-.24-1.26-.73-1.75s-1.07-.73-1.75-.73h-22.12c-.68,0-1.26.24-1.75.73s-.73,1.07-.73,1.75v8.14Z"/>
        <path class="cls-1" d="M244.24,48.95v-29.18c0-1.4.35-2.68,1.05-3.85.7-1.17,1.63-2.1,2.8-2.8,1.17-.7,2.45-1.05,3.85-1.05h20.72v5.21h-20.72c-.68,0-1.26.24-1.75.73-.49.49-.73,1.07-.73,1.75v29.18h-5.21Z"/>
        <path class="cls-1" d="M276.85,48.95V7.69c0-1.44.34-2.74,1.02-3.91.68-1.17,1.6-2.09,2.76-2.77,1.17-.68,2.47-1.02,3.91-1.02h13.48v5.21h-13.48c-.68,0-1.26.24-1.75.73s-.73,1.07-.73,1.75v4.39h15.96v5.21h-15.96v31.66h-5.21Z"/>
        <path class="cls-1" d="M310.35,48.95c-1.4,0-2.68-.35-3.85-1.05-1.17-.7-2.1-1.63-2.8-2.8-.7-1.17-1.05-2.45-1.05-3.85v-13.35h32.29v-8.14c0-.68-.24-1.26-.73-1.75s-1.07-.73-1.75-.73h-29.81v-5.21h29.81c1.44,0,2.74.35,3.91,1.05,1.17.7,2.1,1.63,2.8,2.8.7,1.17,1.05,2.45,1.05,3.85v29.18h-29.88ZM310.35,43.74h24.6v-10.62h-27.08v8.14c0,.68.24,1.26.73,1.75.49.49,1.07.73,1.75.73Z"/>
        <path class="cls-1" d="M349.92,47.9c-1.17-.7-2.1-1.63-2.8-2.8-.7-1.17-1.05-2.45-1.05-3.85v-21.49c0-1.4.35-2.68,1.05-3.85.7-1.17,1.63-2.1,2.8-2.8,1.17-.7,2.45-1.05,3.85-1.05h29.75v5.21h-29.75c-.68,0-1.26.24-1.75.73s-.73,1.07-.73,1.75v21.49c0,.68.24,1.26.73,1.75.49.49,1.07.73,1.75.73h29.88v5.21h-29.88c-1.4,0-2.68-.35-3.85-1.05Z"/>
        <path class="cls-1" d="M392.51,47.9c-1.17-.7-2.1-1.63-2.8-2.8-.7-1.17-1.05-2.45-1.05-3.85v-21.49c0-1.4.35-2.68,1.05-3.85.7-1.17,1.63-2.1,2.8-2.8,1.17-.7,2.45-1.05,3.85-1.05h22.12c1.44,0,2.74.35,3.91,1.05,1.17.7,2.1,1.63,2.8,2.8.7,1.17,1.05,2.45,1.05,3.85v13.35h-32.36v8.14c0,.68.24,1.26.73,1.75.49.49,1.07.73,1.75.73h29.88v5.21h-29.88c-1.4,0-2.68-.35-3.85-1.05ZM393.88,27.91h27.08v-8.14c0-.68-.24-1.26-.73-1.75s-1.07-.73-1.75-.73h-22.12c-.68,0-1.26.24-1.75.73s-.73,1.07-.73,1.75v8.14Z"/>
      </g>
      <g>
        <path class="cls-1" d="M454.91,45.78v-28h22.36c1.01,0,1.94.25,2.8.76.86.51,1.54,1.19,2.06,2.04s.78,1.79.78,2.8v16.8c0,1.01-.26,1.94-.78,2.8s-1.21,1.54-2.06,2.04c-.86.51-1.79.76-2.8.76h-22.36ZM460.71,40.15h16.29c.05,0,.1-.03.16-.08.05-.05.08-.1.08-.16v-16.25c0-.05-.03-.1-.08-.16s-.1-.08-.16-.08h-16.29c-.05,0-.1.03-.16.08-.05.05-.08.1-.08.16v16.25c0,.05.03.1.08.16.05.05.1.08.16.08Z"/>
        <path class="cls-1" d="M489.83,45.03c-.83-.5-1.5-1.17-2-2-.5-.83-.76-1.74-.76-2.72v-11.59c0-.99.25-1.89.76-2.72.51-.83,1.17-1.5,2-2,.83-.5,1.74-.76,2.72-.76h11.9c1.01,0,1.93.25,2.76.76.83.51,1.49,1.17,1.98,2,.49.83.74,1.74.74,2.72v11.59c0,.99-.25,1.89-.74,2.72-.49.83-1.15,1.5-1.98,2-.83.51-1.75.76-2.76.76h-11.9c-.99,0-1.89-.25-2.72-.76ZM492.83,40.26h11.36c.05,0,.1-.03.16-.08s.08-.1.08-.16v-11.04c0-.05-.03-.1-.08-.16-.05-.05-.1-.08-.16-.08h-11.36c-.05,0-.1.03-.16.08-.05.05-.08.1-.08.16v11.04c0,.05.03.1.08.16s.1.08.16.08Z"/>
        <path class="cls-1" d="M516.74,45.03c-.83-.5-1.5-1.17-2-2-.5-.83-.76-1.74-.76-2.72v-11.59c0-.99.25-1.89.76-2.72.51-.83,1.17-1.5,2-2,.83-.5,1.74-.76,2.72-.76h17.34v5.52h-17.07c-.05,0-.1.03-.16.08-.05.05-.08.1-.08.16v11.04c0,.05.03.1.08.16s.1.08.16.08h17.11v5.52h-17.38c-.99,0-1.89-.25-2.72-.76Z"/>
        <path class="cls-1" d="M543.65,45.03c-.83-.5-1.5-1.17-2-2s-.76-1.74-.76-2.72v-1.01h5.52v.74c0,.05.03.1.08.16.05.05.1.08.16.08h11.36c.05,0,.1-.03.16-.08.05-.05.08-.1.08-.16v-2.53c0-.05-.03-.1-.08-.14-.05-.04-.1-.06-.16-.06h-11.63c-.99,0-1.89-.25-2.72-.76-.83-.5-1.5-1.17-2-2s-.76-1.75-.76-2.76v-3.07c0-.99.25-1.89.76-2.72.51-.83,1.17-1.5,2-2,.83-.5,1.74-.76,2.72-.76h11.9c1.01,0,1.93.25,2.76.76.83.51,1.5,1.17,2,2,.5.83.76,1.74.76,2.72v1.01h-5.56v-.74c0-.05-.03-.1-.08-.16-.05-.05-.1-.08-.16-.08h-11.36c-.05,0-.1.03-.16.08s-.08.1-.08.16v2.53c0,.05.03.1.08.14.05.04.1.06.16.06h11.63c1.01,0,1.93.25,2.76.76.83.51,1.5,1.17,2,2,.5.83.76,1.75.76,2.76v3.07c0,.99-.25,1.89-.76,2.72-.51.83-1.17,1.5-2,2-.83.51-1.75.76-2.76.76h-11.9c-.99,0-1.89-.25-2.72-.76Z"/>
      </g>
    </g>
  </g>
</svg>